HIERARCHY
ROOT Root
{
  OFFSET 0.0 0.0 0.0
  CHANNELS 6 Xposition Yposition Zposition Zrotation Yrotation Xrotation
  JOINT Hips
  {
    OFFSET 0.0 100.0 0.0
    CHANNELS 6 Xposition Yposition Zposition Zrotation Yrotation Xrotation
    JOINT Spine1
    {
      OFFSET -0.013727 5.003763 -0.053727
      CHANNELS 3 Zrotation Yrotation Xrotation
      JOINT Spine2
      {
        OFFSET -0.0 7.125301 -0.029825
        CHANNELS 3 Zrotation Yrotation Xrotation
        JOINT Chest
        {
          OFFSET -1e-06 7.550063 -0.815971
          CHANNELS 3 Zrotation Yrotation Xrotation
          JOINT Neck1
          {
            OFFSET -0.181677 26.311295 -0.553348
            CHANNELS 3 Zrotation Yrotation Xrotation
            JOINT Neck2
            {
              OFFSET -3e-06 7.709397 2.302585
              CHANNELS 3 Zrotation Yrotation Xrotation
              JOINT Head
              {
                OFFSET -5e-06 6.128916 1.953709
                CHANNELS 3 Zrotation Yrotation Xrotation
                JOINT HeadEnd
                {
                  OFFSET 0.003598 16.065403 -1.835379
                  CHANNELS 3 Zrotation Yrotation Xrotation
                }
                JOINT Jaw
                {
                  OFFSET 0.002637 0.475592 3.094941
                  CHANNELS 3 Zrotation Yrotation Xrotation
                }
                JOINT LeftEye
                {
                  OFFSET 3.206381 5.380205 7.586883
                  CHANNELS 3 Zrotation Yrotation Xrotation
                }
                JOINT RightEye
                {
                  OFFSET -3.22244 5.361869 7.558234
                  CHANNELS 3 Zrotation Yrotation Xrotation
                }
              }
            }
          }
          JOINT LeftShoulder
          {
            OFFSET 1.621652 23.237164 5.113413
            CHANNELS 3 Zrotation Yrotation Xrotation
            JOINT LeftArm
            {
              OFFSET 14.919846 2e-06 -5.502326
              CHANNELS 3 Zrotation Yrotation Xrotation
              JOINT LeftForeArm
              {
                OFFSET 28.739307 0.0 -0.002588
                CHANNELS 3 Zrotation Yrotation Xrotation
                JOINT LeftHand
                {
                  OFFSET 27.093981 -1e-06 0.002609
                  CHANNELS 3 Zrotation Yrotation Xrotation
                  JOINT LeftHandThumb1
                  {
                    OFFSET 2.276482 -1.392045 3.191413
                    CHANNELS 3 Zrotation Yrotation Xrotation
                    JOINT LeftHandThumb2
                    {
                      OFFSET 4.012836 -1.828127 1.641654
                      CHANNELS 3 Zrotation Yrotation Xrotation
                      JOINT LeftHandThumb3
                      {
                        OFFSET 2.798515 0.0 -3e-06
                        CHANNELS 3 Zrotation Yrotation Xrotation
                        JOINT LeftHandThumbEnd
                        {
                          OFFSET 3.180793 -4e-06 4e-06
                          CHANNELS 3 Zrotation Yrotation Xrotation
                        }
                      }
                    }
                  }
                  JOINT LeftHandIndex1
                  {
                    OFFSET 3.247555 -0.531998 2.296169
                    CHANNELS 3 Zrotation Yrotation Xrotation
                    JOINT LeftHandIndex2
                    {
                      OFFSET 6.364578 0.01206 0.1786
                      CHANNELS 3 Zrotation Yrotation Xrotation
                      JOINT LeftHandIndex3
                      {
                        OFFSET 3.662364 0.0 0.0
                        CHANNELS 3 Zrotation Yrotation Xrotation
                        JOINT LeftHandIndex4
                        {
                          OFFSET 2.329242 4e-06 4e-06
                          CHANNELS 3 Zrotation Yrotation Xrotation
                          JOINT LeftHandIndexEnd
                          {
                            OFFSET 2.759615 -0.180537 -0.113024
                            CHANNELS 3 Zrotation Yrotation Xrotation
                          }
                        }
                      }
                    }
                  }
                  JOINT LeftHandMiddle1
                  {
                    OFFSET 3.163495 0.240981 1.000332
                    CHANNELS 3 Zrotation Yrotation Xrotation
                    JOINT LeftHandMiddle2
                    {
                      OFFSET 6.19078 -0.259278 -1.002548
                      CHANNELS 3 Zrotation Yrotation Xrotation
                      JOINT LeftHandMiddle3
                      {
                        OFFSET 4.35652 -4e-06 -1e-06
                        CHANNELS 3 Zrotation Yrotation Xrotation
                        JOINT LeftHandMiddle4
                        {
                          OFFSET 2.996877 -8e-06 0.0
                          CHANNELS 3 Zrotation Yrotation Xrotation
                          JOINT LeftHandMiddleEnd
                          {
                            OFFSET 2.304287 -0.294569 -0.031741
                            CHANNELS 3 Zrotation Yrotation Xrotation
                          }
                        }
                      }
                    }
                  }
                  JOINT LeftHandRing1
                  {
                    OFFSET 2.882643 -0.053652 -0.322543
                    CHANNELS 3 Zrotation Yrotation Xrotation
                    JOINT LeftHandRing2
                    {
                      OFFSET 5.854541 -0.486202 -1.373841
                      CHANNELS 3 Zrotation Yrotation Xrotation
                      JOINT LeftHandRing3
                      {
                        OFFSET 4.350578 0.0 3e-06
                        CHANNELS 3 Zrotation Yrotation Xrotation
                        JOINT LeftHandRing4
                        {
                          OFFSET 2.651321 7e-06 2e-06
                          CHANNELS 3 Zrotation Yrotation Xrotation
                          JOINT LeftHandRingEnd
                          {
                            OFFSET 1.936105 0.077687 -7.1e-05
                            CHANNELS 3 Zrotation Yrotation Xrotation
                          }
                        }
                      }
                    }
                  }
                  JOINT LeftHandPinky1
                  {
                    OFFSET 2.8655 -0.310005 -1.600378
                    CHANNELS 3 Zrotation Yrotation Xrotation
                    JOINT LeftHandPinky2
                    {
                      OFFSET 5.087849 -1.331141 -1.77123
                      CHANNELS 3 Zrotation Yrotation Xrotation
                      JOINT LeftHandPinky3
                      {
                        OFFSET 3.070974 4e-06 0.0
                        CHANNELS 3 Zrotation Yrotation Xrotation
                        JOINT LeftHandPinky4
                        {
                          OFFSET 1.549672 0.0 1e-06
                          CHANNELS 3 Zrotation Yrotation Xrotation
                          JOINT LeftHandPinkyEnd
                          {
                            OFFSET 1.944893 -0.157802 0.057219
                            CHANNELS 3 Zrotation Yrotation Xrotation
                          }
                        }
                      }
                    }
                  }
                }
              }
            }
          }
          JOINT RightShoulder
          {
            OFFSET -1.380118 23.180309 5.214158
            CHANNELS 3 Zrotation Yrotation Xrotation
            JOINT RightArm
            {
              OFFSET -15.037196 1.2e-05 -5.545604
              CHANNELS 3 Zrotation Yrotation Xrotation
              JOINT RightForeArm
              {
                OFFSET -28.736639 2e-06 -0.002597
                CHANNELS 3 Zrotation Yrotation Xrotation
                JOINT RightHand
                {
                  OFFSET -27.133619 -0.0 0.002613
                  CHANNELS 3 Zrotation Yrotation Xrotation
                  JOINT RightHandThumb1
                  {
                    OFFSET -2.274032 -1.383988 3.163127
                    CHANNELS 3 Zrotation Yrotation Xrotation
                    JOINT RightHandThumb2
                    {
                      OFFSET -4.011429 -1.827466 1.640914
                      CHANNELS 3 Zrotation Yrotation Xrotation
                      JOINT RightHandThumb3
                      {
                        OFFSET -2.794935 -4e-06 -3e-06
                        CHANNELS 3 Zrotation Yrotation Xrotation
                        JOINT RightHandThumbEnd
                        {
                          OFFSET -3.183852 4e-06 1e-06
                          CHANNELS 3 Zrotation Yrotation Xrotation
                        }
                      }
                    }
                  }
                  JOINT RightHandIndex1
                  {
                    OFFSET -3.253266 -0.520057 2.282866
                    CHANNELS 3 Zrotation Yrotation Xrotation
                    JOINT RightHandIndex2
                    {
                      OFFSET -6.341917 0.012471 0.178266
                      CHANNELS 3 Zrotation Yrotation Xrotation
                      JOINT RightHandIndex3
                      {
                        OFFSET -3.654871 -8e-06 -0.0
                        CHANNELS 3 Zrotation Yrotation Xrotation
                        JOINT RightHandIndex4
                        {
                          OFFSET -2.327586 0.0 1e-06
                          CHANNELS 3 Zrotation Yrotation Xrotation
                          JOINT RightHandIndexEnd
                          {
                            OFFSET -2.76179 -0.180656 -0.113078
                            CHANNELS 3 Zrotation Yrotation Xrotation
                          }
                        }
                      }
                    }
                  }
                  JOINT RightHandMiddle1
                  {
                    OFFSET -3.168106 0.246593 1.00103
                    CHANNELS 3 Zrotation Yrotation Xrotation
                    JOINT RightHandMiddle2
                    {
                      OFFSET -6.180828 -0.258836 -1.000895
                      CHANNELS 3 Zrotation Yrotation Xrotation
                      JOINT RightHandMiddle3
                      {
                        OFFSET -4.348901 0.0 -0.0
                        CHANNELS 3 Zrotation Yrotation Xrotation
                        JOINT RightHandMiddle4
                        {
                          OFFSET -3.00024 -4e-06 -2e-06
                          CHANNELS 3 Zrotation Yrotation Xrotation
                          JOINT RightHandMiddleEnd
                          {
                            OFFSET -2.30252 -0.29437 -0.031706
                            CHANNELS 3 Zrotation Yrotation Xrotation
                          }
                        }
                      }
                    }
                  }
                  JOINT RightHandRing1
                  {
                    OFFSET -2.88569 -0.067952 -0.308858
                    CHANNELS 3 Zrotation Yrotation Xrotation
                    JOINT RightHandRing2
                    {
                      OFFSET -5.854198 -0.48613 -1.373731
                      CHANNELS 3 Zrotation Yrotation Xrotation
                      JOINT RightHandRing3
                      {
                        OFFSET -4.33881 -4e-06 -0.0
                        CHANNELS 3 Zrotation Yrotation Xrotation
                        JOINT RightHandRing4
                        {
                          OFFSET -2.654903 -4e-06 4e-06
                          CHANNELS 3 Zrotation Yrotation Xrotation
                          JOINT RightHandRingEnd
                          {
                            OFFSET -1.933568 0.077527 -5.2e-05
                            CHANNELS 3 Zrotation Yrotation Xrotation
                          }
                        }
                      }
                    }
                  }
                  JOINT RightHandPinky1
                  {
                    OFFSET -2.866425 -0.342796 -1.584145
                    CHANNELS 3 Zrotation Yrotation Xrotation
                    JOINT RightHandPinky2
                    {
                      OFFSET -5.091371 -1.332055 -1.772385
                      CHANNELS 3 Zrotation Yrotation Xrotation
                      JOINT RightHandPinky3
                      {
                        OFFSET -3.062664 -4e-06 1e-06
                        CHANNELS 3 Zrotation Yrotation Xrotation
                        JOINT RightHandPinky4
                        {
                          OFFSET -1.546529 4e-06 -2e-06
                          CHANNELS 3 Zrotation Yrotation Xrotation
                          JOINT RightHandPinkyEnd
                          {
                            OFFSET -1.945119 -0.157718 0.057211
                            CHANNELS 3 Zrotation Yrotation Xrotation
                          }
                        }
                      }
                    }
                  }
                }
              }
            }
          }
        }
      }
    }
    JOINT LeftLeg
    {
      OFFSET 10.043214 -8.434526 2.595655
      CHANNELS 3 Zrotation Yrotation Xrotation
      JOINT LeftShin
      {
        OFFSET -1e-06 -43.221752 -0.802913
        CHANNELS 3 Zrotation Yrotation Xrotation
        JOINT LeftFoot
        {
          OFFSET 1e-06 -42.155094 -3.481523
          CHANNELS 3 Zrotation Yrotation Xrotation
          JOINT LeftToeBase
          {
            OFFSET 0.0 -5.059472 13.231529
            CHANNELS 3 Zrotation Yrotation Xrotation
            JOINT LeftToeEnd
            {
              OFFSET -0.009607 -1.647619 6.513017
              CHANNELS 3 Zrotation Yrotation Xrotation
            }
          }
        }
      }
    }
    JOINT RightLeg
    {
      OFFSET -10.047278 -8.29526 2.620317
      CHANNELS 3 Zrotation Yrotation Xrotation
      JOINT RightShin
      {
        OFFSET 1e-06 -43.362206 -0.805556
        CHANNELS 3 Zrotation Yrotation Xrotation
        JOINT RightFoot
        {
          OFFSET 2e-06 -42.117393 -3.478398
          CHANNELS 3 Zrotation Yrotation Xrotation
          JOINT RightToeBase
          {
            OFFSET -0.0 -5.079609 13.284196
            CHANNELS 3 Zrotation Yrotation Xrotation
            JOINT RightToeEnd
            {
              OFFSET 0.009532 -1.634378 6.460591
              CHANNELS 3 Zrotation Yrotation Xrotation
            }
          }
        }
      }
    }
  }
}
MOTION
Frames: 4
Frame Time: 0.03333333333333333
0.0 0.0 0.0 0.0 -0.0 0.0 -12.602705 95.990944 -13.490583 -0.565214 -4.554228 2.631198 0.473015 -0.505559 11.211677 -0.425814 -0.23578 -1.084683 -0.327175 -2.622363 21.344473 3.604729 0.567933 10.984582 -1.167282 1.116291 -3.466969 -3.218688 0.861513 -3.745424 7.7e-05 -2.3e-05 6e-06 -0.028198 0.028157 -0.014413 0.724763 -3.72821 -10.414895 -0.784752 3.783128 -10.411243 53.856159 -23.959278 -11.702118 -15.549547 -47.973228 -80.92025 -0.008365 -38.698971 0.241671 4.036018 8.97043 -70.905304 -5.882104 9.861286 0.702591 -10.936874 -0.360578 7.156209 4e-06 8.774829 -0.0 -15.479711 19.119085 6.995401 -1.844034 2.498505 -2.507278 -10.163601 4.678943 4.621112 -20.976028 -9e-06 6e-06 -21.226292 2.451694 -3.593996 -0.0 -6e-06 0.0 -1.362682 2.240798 -0.746324 -21.334919 0.584904 3.008327 -13.82122 -5e-06 5e-06 -23.887178 -0.249082 -0.839478 -60.656479 2.914344 -1.683255 -0.294024 1.679688 0.833256 -14.218214 0.093211 1.300582 -34.212059 -0.287572 0.967178 -20.03322 0.964534 1.212849 -0.0 -0.0 0.0 -3.440389 0.788232 0.501657 -15.928192 -3.167314 2.999709 -6.338829 -2e-06 2e-06 -18.123447 3.64818 -4.905669 -6e-06 1e-06 -2e-06 -30.813702 29.102398 -5.202463 -30.921049 53.327351 -91.653061 0.017562 25.403543 -0.034628 -23.223736 -3.522548 -50.504097 2.243542 -5.255041 -3.18016 14.282891 -0.826594 6.952506 -1e-06 -12.690612 -2e-06 15.254577 -18.036581 2.982208 1.665666 -1.955923 -2.8783 4.727799 -4.170591 4.993926 11.020528 3e-06 -2e-06 12.109052 -3.735719 -2.866786 1e-06 -0.0 -0.0 1.291986 -1.928552 -1.49809 14.800127 0.567468 3.86561 14.242569 -1.341738 -6.660661 19.631966 0.143926 -0.648245 49.435921 -0.773595 -6.021679 0.353029 -1.511152 -0.03194 20.22279 3.684311 2.316633 18.787273 3e-06 -1e-06 10.751631 -0.479869 1.397907 0.0 -1e-06 1e-06 3.273807 0.305946 -0.580111 21.486813 11.830384 2.266138 8.162928 1e-06 1e-06 18.399084 -3.798989 -4.940577 3e-06 -1e-06 -2e-06 11.514332 13.344735 -24.125883 -0.204391 -0.214994 27.970362 -12.704337 -5.716079 -2.592556 1.651138 -1.835874 -0.671684 0.0 0.0 2e-06 -8.255029 -18.504324 -22.570305 0.137236 0.23781 32.564754 10.232824 0.511156 -7.652477 -1.436011 0.915715 0.372301 0.0 -0.0 -1e-06 
0.0 0.0 0.0 0.0 -0.0 0.0 -12.65387 95.997879 -13.413422 -0.53013 -4.592834 2.531235 0.479259 -0.491626 11.162721 -0.431298 -0.232521 -1.100522 -0.29623 -2.652272 21.341385 3.629517 0.566883 11.044859 -1.194138 1.071768 -3.46708 -3.258798 0.836658 -3.736399 7.7e-05 -2.2e-05 6e-06 -0.027402 0.025705 -0.017207 0.725949 -3.727489 -10.404984 -0.784844 3.777787 -10.400242 53.819885 -23.887527 -11.71293 -15.918436 -48.149082 -80.79277 -0.026166 -38.750309 0.288992 4.145681 8.949141 -70.527031 -5.882106 9.861284 0.70259 -10.93687 -0.360572 7.156204 -2e-06 8.774822 0.0 -15.497614 19.092651 7.021681 -1.844034 2.498504 -2.507278 -10.163597 4.678945 4.621109 -20.976021 -2e-06 -1e-06 -21.226284 2.451697 -3.594002 -0.0 -6e-06 0.0 -1.362681 2.240797 -0.746323 -21.334913 0.584913 3.008322 -13.821215 -1e-06 1e-06 -23.887173 -0.249079 -0.839486 -60.674675 2.905169 -1.679838 -0.294025 1.679687 0.833255 -14.218206 0.093216 1.300579 -34.212048 -0.287562 0.967165 -20.033211 0.964537 1.21284 0.0 -0.0 -0.0 -3.440388 0.788233 0.501654 -15.928183 -3.167307 2.999706 -6.338824 0.0 2e-06 -18.123444 3.648182 -4.905671 -5e-06 1e-06 -2e-06 -30.816305 29.05732 -5.16887 -30.785944 53.488174 -91.485641 0.076866 25.431414 0.01365 -23.274681 -3.562283 -50.559235 2.243542 -5.255037 -3.180158 14.282896 -0.826596 6.952504 -2e-06 -12.690607 0.0 15.257666 -17.990406 2.975711 1.665666 -1.955921 -2.878299 4.727799 -4.170588 4.993925 11.020528 2e-06 -1e-06 12.109056 -3.735717 -2.866785 0.0 -0.0 -0.0 1.291986 -1.92855 -1.498089 14.800132 0.567467 3.86561 14.242577 -1.341737 -6.660658 19.631969 0.143925 -0.648244 49.461067 -0.767713 -5.997446 0.353029 -1.51115 -0.03194 20.222797 3.684308 2.316632 18.787275 3e-06 -0.0 10.751631 -0.479869 1.397908 -1e-06 -1e-06 1e-06 3.273808 0.305947 -0.580111 21.486816 11.830374 2.266135 8.16293 1e-06 -1e-06 18.399086 -3.798987 -4.940574 4e-06 -1e-06 -1e-06 11.548677 13.35391 -23.918297 -0.204816 -0.21113 27.874861 -12.75956 -5.758946 -2.58989 1.650291 -1.85225 -0.657412 0.0 0.0 2e-06 -8.313815 -18.469332 -22.423681 0.135749 0.231834 32.594414 10.189781 0.567709 -7.717708 -1.434951 0.915357 0.368367 0.0 -0.0 -1e-06 
0.0 0.0 0.0 0.0 -0.0 0.0 -12.709856 96.000259 -13.3404 -0.490076 -4.621064 2.434544 0.489676 -0.479086 11.123867 -0.434512 -0.230496 -1.122226 -0.260304 -2.671837 21.339403 3.649435 0.549575 11.096383 -1.232695 1.029216 -3.47254 -3.294625 0.826575 -3.731493 7.7e-05 -2.2e-05 5e-06 -0.025619 0.020968 -0.020129 0.728561 -3.729317 -10.399017 -0.784358 3.770583 -10.392037 53.780045 -23.841509 -11.728981 -16.290794 -48.293175 -80.680084 -0.073148 -38.819523 0.358979 4.270916 8.938376 -70.157738 -5.882111 9.8613 0.702592 -10.936887 -0.360577 7.156219 3e-06 8.774839 -1e-06 -15.512603 19.041616 7.03804 -1.844033 2.498507 -2.507281 -10.163612 4.678951 4.621119 -20.976049 -5e-06 7e-06 -21.226309 2.451699 -3.594001 1e-06 -6e-06 0.0 -1.362683 2.240801 -0.746325 -21.334942 0.584909 3.008333 -13.821233 -3e-06 5e-06 -23.887201 -0.249079 -0.839479 -60.655071 2.892466 -1.66144 -0.294025 1.67969 0.833256 -14.218227 0.093213 1.300586 -34.212093 -0.287565 0.96718 -20.033241 0.96454 1.212849 -0.0 0.0 -0.0 -3.440394 0.788235 0.501658 -15.928209 -3.167316 2.999714 -6.338835 -1e-06 2e-06 -18.123466 3.648189 -4.905674 -5e-06 1e-06 -2e-06 -30.834892 29.03998 -5.150117 -30.585068 53.615875 -91.274345 0.140467 25.445259 0.05584 -23.302811 -3.57692 -50.581264 2.243543 -5.255046 -3.180162 14.28291 -0.826596 6.952517 0.0 -12.690625 -2e-06 15.255728 -17.959181 2.977631 1.665667 -1.955925 -2.878303 4.727806 -4.170592 4.993933 11.02054 1e-06 2e-06 12.109063 -3.735723 -2.866787 2e-06 -0.0 -0.0 1.291986 -1.928552 -1.498091 14.800148 0.567468 3.865617 14.242585 -1.341741 -6.660665 19.631987 0.143922 -0.648242 49.482819 -0.768714 -5.979678 0.353029 -1.511153 -0.03194 20.222816 3.684313 2.31664 18.787296 1e-06 4e-06 10.751641 -0.479871 1.39791 -1e-06 -0.0 1e-06 3.27381 0.305948 -0.580111 21.486841 11.830391 2.266146 8.162938 -1e-06 1e-06 18.399105 -3.798994 -4.940577 5e-06 -1e-06 -1e-06 11.580952 13.366169 -23.717505 -0.208518 -0.208177 27.77692 -12.800207 -5.82018 -2.598234 1.650789 -1.875175 -0.645402 0.0 0.0 2e-06 -8.372945 -18.43441 -22.281843 0.13686 0.231174 32.625401 10.142014 0.613993 -7.811136 -1.432788 0.914576 0.350457 0.0 -0.0 -1e-06 
0.0 0.0 0.0 0.0 -0.0 0.0 -12.767045 95.998749 -13.280706 -0.455605 -4.631028 2.341726 0.511318 -0.472256 11.090444 -0.43713 -0.227315 -1.142112 -0.225179 -2.694473 21.338799 3.633236 0.532401 11.136545 -1.248513 0.99145 -3.474297 -3.319752 0.827891 -3.724895 7.7e-05 -2.2e-05 5e-06 -0.028389 0.02177 -0.023355 0.726678 -3.727783 -10.402125 -0.788439 3.771178 -10.393089 53.73082 -23.798704 -11.734224 -16.613274 -48.400566 -80.540306 -0.151895 -38.848663 0.443278 4.360533 8.912704 -69.979324 -5.882107 9.861288 0.702592 -10.936877 -0.360573 7.156208 -0.0 8.77483 -0.0 -15.51764 18.992039 7.04378 -1.844032 2.498505 -2.507277 -10.163602 4.678947 4.621111 -20.976027 -3e-06 4e-06 -21.226288 2.451699 -3.593999 -0.0 -6e-06 -0.0 -1.362681 2.240798 -0.746324 -21.334917 0.58491 3.008325 -13.821217 -1e-06 4e-06 -23.887177 -0.249077 -0.839482 -60.608974 2.876813 -1.635236 -0.294025 1.679688 0.833256 -14.21821 0.093215 1.300582 -34.212048 -0.287562 0.967172 -20.033216 0.964538 1.212845 0.0 -0.0 -0.0 -3.440389 0.788234 0.501654 -15.928189 -3.16731 2.999708 -6.338827 -1e-06 2e-06 -18.123447 3.648185 -4.905671 -6e-06 1e-06 -2e-06 -30.868435 29.066936 -5.126674 -30.365276 53.676006 -91.031822 0.200599 25.438049 0.092044 -23.289371 -3.59749 -50.666565 2.243542 -5.255039 -3.180159 14.282896 -0.826596 6.952508 -2e-06 -12.69061 2e-06 15.235326 -17.953806 2.998441 1.665666 -1.955922 -2.878301 4.727801 -4.170589 4.993928 11.020531 2e-06 -0.0 12.109056 -3.735718 -2.866785 2e-06 -0.0 -0.0 1.291986 -1.92855 -1.49809 14.800134 0.567467 3.865611 14.242577 -1.341738 -6.660661 19.631973 0.143925 -0.648244 49.481159 -0.779349 -5.965208 0.353029 -1.511151 -0.03194 20.222801 3.68431 2.316633 18.787285 3e-06 -0.0 10.751633 -0.47987 1.397908 -1e-06 -1e-06 1e-06 3.273808 0.305947 -0.580111 21.48682 11.830379 2.266135 8.162933 -1e-06 -1e-06 18.399092 -3.79899 -4.940578 4e-06 -0.0 -2e-06 11.615582 13.380589 -23.533213 -0.210571 -0.209255 27.687286 -12.825468 -5.893149 -2.60817 1.652053 -1.897093 -0.650564 -0.0 0.0 2e-06 -8.421847 -18.396345 -22.145208 0.137521 0.231608 32.649872 10.075806 0.651165 -7.919639 -1.430841 0.907339 0.323334 -0.0 -0.0 -1e-06 
